HIERARCHY
ROOT Hips
{
	OFFSET 0.00000 0.00000 0.00000
	CHANNELS 6 Xposition Yposition Zposition Yrotation Zrotation Xrotation 
	JOINT Lumbar
	{
		OFFSET 0 0 0
		CHANNELS 3 Zrotation Xrotation Yrotation
		JOINT Neck
		{
			OFFSET 0.00 0.2701 0.00
			CHANNELS 3 Zrotation Xrotation Yrotation
			End Site
			{
				OFFSET 0.00 0.1379 0.00
			}
		}
		JOINT RightShoulder
		{
			OFFSET 0.0119 0.2289 0.1181
			CHANNELS 3 Zrotation Xrotation Yrotation
			JOINT RightElbow
			{
				OFFSET 0.00 -0.1475 0.00
				CHANNELS 2 Zrotation Yrotation
				JOINT RightWrist
				{
					OFFSET 0.00 -0.1605 0.00
					CHANNELS 2 Zrotation Xrotation
					End Site
					{
						OFFSET 0.0040 -0.1068 0.0006
					}
				}
			}
		}
		JOINT LeftShoulder
		{
			OFFSET 0.0119 0.2289 -0.1181
			CHANNELS 3 Zrotation Xrotation Yrotation
			JOINT LeftElbow
			{
				OFFSET 0.00 -0.1475 0.00
				CHANNELS 2 Zrotation Yrotation
				JOINT LeftWrist
				{
					OFFSET 0.00 -0.1605 0.00
					CHANNELS 2 Zrotation Xrotation
					End Site
					{
						OFFSET 0.0040 -0.1068 -0.0006
					}
				}
			}
		}
	}
	JOINT RightHip
	{
		OFFSET 0.0316 -0.0424 0.0458
		CHANNELS 3 Zrotation Xrotation Yrotation
		JOINT RightKnee
		{
			OFFSET 0.00 -0.2438 0.00
			CHANNELS 1 Zrotation
			JOINT RightAnkle
			{
				OFFSET 0.00 -0.2449 0.00
				CHANNELS 3 Zrotation Xrotation Yrotation
				End Site
				{
					OFFSET 0.1237 -0.0542 0.0051
				}
			}
		}
	}
	JOINT LeftHip
	{
		OFFSET 0.0316 -0.0424 -0.0458
		CHANNELS 3 Zrotation Xrotation Yrotation
		JOINT LeftKnee
		{
			OFFSET 0.00 -0.2438 0.00
			CHANNELS 1 Zrotation
			JOINT LeftAnkle
			{
				OFFSET 0.00 -0.2449 0.00
				CHANNELS 3 Zrotation Xrotation Yrotation
				End Site
				{
					OFFSET 0.1237 -0.0542 -0.0051
				}
			}
		}
	}
}
MOTION
Frames: 11
Frame Time: 0.02
3e-05 3e-05 -0.00025 -180.64126 -36.46444 -3.69467 46.81733 2.7057 -2.3861 -15.86362 -1.29185 -0.23498 49.5727 -102.89469 64.17188 9.03346 89.9716 10.51251 -1.26001 12.17082 105.99905 -64.14669 9.42661 -83.46432 4.22587 1.94927 42.39112 -2.44164 -3.27313 -21.88813 -7.13728 -3.56761 -2.55366 46.05398 7.01896 1.27113 -27.06994 -7.11894 3.33298 2.39355
0.00012 3e-05 -0.00027 -180.63623 -36.4693 -3.69216 46.78472 2.70616 -2.40886 -15.87718 -1.28933 -0.23549 49.63883 -102.9143 64.1717 9.02577 90.00099 10.53796 -1.24965 12.20556 105.97292 -64.14166 9.42929 -83.51237 4.23491 2.01097 42.40603 -2.45482 -3.3483 -21.89459 -7.13399 -3.56382 -2.54819 46.06968 7.01839 1.26353 -27.07342 -7.12006 3.33447 2.39503
0.0002 3e-05 -0.0003 -180.6313 -36.47444 -3.68968 46.75248 2.70663 -2.43154 -15.89073 -1.28681 -0.236 49.70453 -102.93394 64.17152 9.01815 90.0303 10.5633 -1.23933 12.24047 105.94692 -64.13665 9.43195 -83.56025 4.24402 2.07245 42.42127 -2.46811 -3.42398 -21.90113 -7.13069 -3.55994 -2.54268 46.08567 7.0178 1.25592 -27.07691 -7.12119 3.33595 2.39652
0.00029 3e-05 -0.00033 -180.6263 -36.47934 -3.68718 46.72002 2.70708 -2.45424 -15.90424 -1.28429 -0.23651 49.77042 -102.9535 64.17134 9.01049 90.05959 10.58867 -1.229 12.27515 105.92088 -64.13163 9.43463 -83.60815 4.25305 2.13397 42.43621 -2.48127 -3.49908 -21.90759 -7.12741 -3.55615 -2.53722 46.10139 7.01723 1.24833 -27.08038 -7.12231 3.33743 2.398
0.00037 3e-05 -0.00036 -180.62116 -36.48381 -3.68465 46.68709 2.70752 -2.47703 -15.91775 -1.28177 -0.23702 49.83685 -102.97301 64.17116 9.00273 90.08896 10.61414 -1.21861 12.30956 105.8947 -64.12658 9.43733 -83.65624 4.26195 2.19568 42.45063 -2.49424 -3.57328 -21.91395 -7.12415 -3.5525 -2.53183 46.11664 7.01668 1.24077 -27.08382 -7.12342 3.3389 2.39948
0.00045 3e-05 -0.00039 -180.61665 -36.49036 -3.68226 46.65627 2.70807 -2.49946 -15.9314 -1.27923 -0.23753 49.90101 -102.99292 64.17098 8.9954 90.11814 10.63918 -1.20843 12.34553 105.86907 -64.12166 9.43991 -83.70366 4.27151 2.25667 42.46757 -2.50819 -3.65201 -21.92085 -7.12076 -3.54813 -2.52607 46.13418 7.01604 1.23309 -27.08745 -7.12457 3.34044 2.40099
0.00054 3e-05 -0.00042 -180.61091 -36.49279 -3.67959 46.62129 2.70838 -2.5226 -15.94474 -1.27675 -0.23804 49.96962 -103.012 64.17079 8.98724 90.14767 10.6651 -1.19786 12.37831 105.84237 -64.1165 9.44272 -83.75236 4.27978 2.3191 42.47952 -2.52021 -3.72183 -21.92667 -7.11762 -3.54519 -2.52104 46.14718 7.01556 1.22558 -27.09068 -7.12565 3.34183 2.40243
0.00062 3e-05 -0.00044 -180.60626 -36.49888 -3.67717 46.59003 2.70891 -2.54509 -15.95839 -1.27421 -0.23856 50.03423 -103.03185 64.17061 8.97981 90.17687 10.69016 -1.18763 12.41406 105.81663 -64.11155 9.44533 -83.79991 4.28914 2.38009 42.49589 -2.53391 -3.79932 -21.93345 -7.11427 -3.541 -2.51538 46.16419 7.01496 1.21805 -27.09427 -7.12679 3.34334 2.40392
0.00071 2e-05 -0.00047 -180.60314 -36.51004 -3.67509 46.56386 2.70972 -2.56677 -15.9723 -1.27162 -0.23907 50.0935 -103.05265 64.17044 8.97341 90.20569 10.71439 -1.17786 12.45336 105.79215 -64.10686 9.44765 -83.84598 4.30023 2.43978 42.51848 -2.55009 -3.88854 -21.94159 -7.11061 -3.53496 -2.50879 46.18688 7.01413 1.20998 -27.09834 -7.12804 3.34508 2.40555
0.0008 2e-05 -0.0005 -180.5918 -36.49385 -3.67118 46.51004 2.70896 -2.59304 -15.98436 -1.26939 -0.23956 50.18214 -103.06799 64.17023 8.96148 90.23676 10.74404 -1.16558 12.47203 105.7607 -64.1007 9.45151 -83.90034 4.30256 2.50833 42.50775 -2.55328 -3.91735 -21.94244 -7.10858 -3.53864 -2.50703 46.17925 7.01437 1.20344 -27.09978 -7.12875 3.34575 2.4066
0.00087 2e-05 -0.00053 -180.59744 -36.53415 -3.67103 46.51345 2.71148 -2.6097 -16.00055 -1.26634 -0.24011 50.2097 -103.09487 64.1701 8.96099 90.26306 10.76184 -1.15853 12.5343 105.74379 -64.09762 9.45223 -83.93735 4.32262 2.55733 42.5657 -2.58304 -4.06901 -21.95832 -7.10321 -3.5224 -2.49543 46.23406 7.01251 1.1947 -27.10667 -7.13052 3.34852 2.40876
